<svg width="33" height="48" viewBox="0 0 33 48" fill="none" xmlns="http://www.w3.org/2000/svg">
    <g clip-path="url(#clip0)">
        <path d="M16.4942 0C7.36576 0 0 7.5476 0 16.7445C0 20.2262 1.34241 24.3493 2.96498 27.0752L15.0233 47.1639C15.5019 47.9656 16.5409 48.2405 17.358 47.7709C17.6148 47.622 17.8249 47.4159 17.9767 47.1639L30.035 27.0752C31.6693 24.3493 33 20.2262 33 16.7445C33 7.5476 25.6226 0 16.4942 0ZM16.4942 25.1167C11.4864 25.1167 7.3891 21.0966 7.3891 16.1833C7.3891 11.2699 11.4864 7.24982 16.4942 7.24982C21.5019 7.24982 25.5992 11.2699 25.5992 16.1833C25.5992 21.0966 21.5019 25.1167 16.4942 25.1167Z" fill="#2B3041"/>
        <path d="M18.7494 25.5566C24.026 24.3342 27.2934 19.1463 26.0475 13.9692C24.8016 8.79217 19.514 5.58631 14.2375 6.80877C8.96095 8.03122 5.69351 13.2191 6.93945 18.3961C8.18539 23.5732 13.4729 26.7791 18.7494 25.5566Z" fill="white"/>
    </g>
    <defs>
        <clipPath id="clip0">
            <rect width="33" height="48" fill="white"/>
        </clipPath>
    </defs>
</svg>
