<svg width="138" height="30" viewBox="0 0 138 30" fill="none" xmlns="http://www.w3.org/2000/svg">
<path d="M105.382 13.1528H97.7801V9.69269H105.222V6.82815H97.7801V3.59489H105.382V0.730347H94.5098V16.0209H105.382V13.1528Z" fill="#2B3041"/>
<path d="M122.912 10.1961C124.573 9.80614 126.275 8.36323 126.275 5.65822C126.275 2.81494 124.316 0.730347 121.117 0.730347H113.932V16.0209H117.202V10.5861H119.596L122.613 16.0174H126.368L122.912 10.1961ZM120.633 7.72154H117.202V3.59489H120.633C121.947 3.59489 122.937 4.37485 122.937 5.65822C122.937 6.94159 121.943 7.72154 120.633 7.72154Z" fill="#2B3041"/>
<path d="M44.7547 0.730347H41.4844V16.0209H44.7547V0.730347Z" fill="#2B3041"/>
<path d="M6.65811 13.4507C4.53849 13.4507 2.85704 12.5112 1.77407 11.3874L0 13.8655C1.42852 15.3084 3.54814 16.294 6.49424 16.294C10.6409 16.294 12.6429 14.1846 12.6429 11.3874C12.6429 5.67958 3.81889 7.30685 3.81889 4.87836C3.81889 3.96015 4.60261 3.34328 6.0062 3.34328C7.57365 3.34328 9.23016 3.87152 10.4734 5.01663L12.2938 2.63423C10.7798 1.23386 8.7528 0.5 6.31256 0.5C2.69673 0.5 0.484486 2.60941 0.484486 5.15489C0.484486 10.9088 9.32991 9.0511 9.32991 11.7561C9.32991 12.6282 8.45356 13.4507 6.65811 13.4507Z" fill="#2B3041"/>
<path d="M60.9705 0.730347H53.7852V16.0209H57.0554V10.5861H60.9705C64.2871 10.5861 66.1289 8.31714 66.1289 5.65822C66.1324 2.97448 64.312 0.730347 60.9705 0.730347ZM60.5359 7.72154H57.059V3.59489H60.5359C61.8255 3.59489 62.7945 4.37485 62.7945 5.65822C62.7909 6.91678 61.8255 7.72154 60.5359 7.72154Z" fill="#2B3041"/>
<path d="M81.3357 0.730347H74.1504V16.0209H77.4207V10.5861H81.3357C84.6523 10.5861 86.4941 8.31714 86.4941 5.65822C86.4941 2.97448 84.6737 0.730347 81.3357 0.730347ZM80.8976 7.72154H77.4207V3.59489H80.8976C82.1872 3.59489 83.1561 4.37485 83.1561 5.65822C83.1526 6.91678 82.1872 7.72154 80.8976 7.72154Z" fill="#2B3041"/>
<path d="M138.001 0.730347H134.73V16.0209H138.001V0.730347Z" fill="#2B3041"/>
<path d="M27.62 8.31365L33.4801 0.889929L29.9462 0.865112L25.8067 6.06242C25.3579 5.42074 24.738 4.91022 24.0113 4.59115V0.889929H20.741V4.49898C19.0952 5.1123 17.916 6.67929 17.916 8.53345C17.916 10.3876 19.0952 11.9546 20.741 12.5679V16.1805H24.0113V12.4757C24.8235 12.1177 25.4932 11.5185 25.9492 10.7705L29.8607 16.177H33.5941L27.62 8.31365ZM23.4876 9.75656C23.4876 9.7601 23.4876 9.7601 23.4876 9.75656C23.4128 9.82746 23.3415 9.88418 23.2703 9.93382C23.2454 9.95154 23.224 9.96927 23.199 9.98345C23.1848 9.99054 23.1705 10.0047 23.1599 10.0118C23.1527 10.0154 23.1492 10.0118 23.1456 10.0154C22.8856 10.1713 22.5827 10.2635 22.2586 10.2635C21.2967 10.2635 20.5166 9.48712 20.5166 8.5299C20.5166 7.57269 21.2967 6.79629 22.2586 6.79629C22.5827 6.79629 22.882 6.89201 23.1456 7.04445C23.1527 7.048 23.1563 7.04445 23.1634 7.048C23.1741 7.05509 23.1848 7.06572 23.1955 7.07281C23.2311 7.09763 23.2667 7.12245 23.2988 7.14726C23.3593 7.19335 23.4199 7.23944 23.4805 7.29616C23.484 7.29971 23.4876 7.30325 23.4947 7.3068C24.0041 7.77122 24.51 8.51572 24.51 8.51572C24.51 8.51572 23.9792 9.29922 23.4876 9.75656Z" fill="#2B3041"/>
<path d="M137.411 22.8138C136.816 22.4273 136.011 22.594 135.623 23.1896C134.116 25.494 131.294 26.9227 128.252 26.9227C125.231 26.9227 122.428 25.5117 120.914 23.2356C120.814 23.069 120.678 22.9237 120.504 22.8102C119.909 22.4238 119.104 22.5904 118.716 23.186C117.209 25.4904 114.387 26.9191 111.345 26.9191C108.324 26.9191 105.52 25.5081 104.006 23.2321C103.907 23.0655 103.771 22.9201 103.597 22.8067C103.002 22.4202 102.197 22.5869 101.808 23.1825C100.302 25.4869 97.4801 26.9156 94.4378 26.9156C91.4169 26.9156 88.6133 25.5046 87.0993 23.2286C86.9995 23.0619 86.8642 22.9166 86.6896 22.8031C86.0911 22.4167 85.2896 22.5833 84.9013 23.1789C83.398 25.4833 80.573 26.912 77.5343 26.912C74.5134 26.912 71.7098 25.501 70.1957 23.225C70.096 23.0584 69.9606 22.913 69.7861 22.7996C69.1876 22.4131 68.386 22.5798 67.9977 23.1754C66.4909 25.4798 63.6694 26.9085 60.6272 26.9085C57.6062 26.9085 54.8026 25.4975 53.2886 23.2215C53.1889 23.0548 53.0535 22.9095 52.8789 22.796C52.284 22.4096 51.4789 22.5762 51.0906 23.1718C49.5837 25.4762 46.7623 26.905 43.72 26.905C40.6991 26.905 37.8955 25.494 36.3815 23.2179C36.2818 23.0513 36.1464 22.9059 35.9718 22.7925C35.3733 22.4061 34.5718 22.5727 34.1835 23.1683C32.6766 25.4727 29.8552 26.9014 26.8129 26.9014C23.792 26.9014 20.9884 25.4904 19.4744 23.2144C19.3746 23.0477 19.2393 22.9024 19.0647 22.7889C18.4698 22.4025 17.6647 22.5691 17.2764 23.1647C15.7695 25.4691 12.9481 26.8979 9.90579 26.8979C6.86707 26.8979 4.04209 25.4691 2.53876 23.1647C2.15046 22.5691 1.34892 22.4025 0.750437 22.7889C0.151955 23.1754 -0.0190399 23.973 0.372823 24.5686C2.34283 27.6211 5.99784 29.5001 9.90223 29.5001C13.1761 29.5001 16.2753 28.1777 18.3558 25.969C20.4362 28.1777 23.5355 29.5001 26.8093 29.5001C30.0832 29.5001 33.1825 28.1777 35.2629 25.969C37.3433 28.1777 40.4426 29.5001 43.7165 29.5001C46.9903 29.5001 50.0896 28.1777 52.17 25.969C54.2505 28.1777 57.3497 29.5001 60.6236 29.5001C63.8974 29.5001 66.9967 28.1777 69.0771 25.969C71.1576 28.1777 74.2569 29.5001 77.5307 29.5001C80.8046 29.5001 83.9038 28.1777 85.9843 25.969C88.0647 28.1777 91.164 29.5001 94.4378 29.5001C97.7117 29.5001 100.811 28.1777 102.891 25.969C104.972 28.1777 108.071 29.5001 111.345 29.5001C114.619 29.5001 117.718 28.1777 119.799 25.969C121.879 28.1777 124.978 29.5001 128.252 29.5001C132.16 29.5001 135.815 27.6211 137.792 24.5935C138.18 23.9979 138.009 23.2002 137.411 22.8138Z" fill="#2B3041"/>
</svg>
